<svg id="it-icon" xmlns="http://www.w3.org/2000/svg" viewBox="689.27 269.28 541.50 541.46">
  <defs>
    <style>
      .icon-1 {
        fill: #0074cb;
      }

      .icon-2 {
        fill: #003ea1;
      }
    </style>
  </defs>
  <path class="icon-1" d="M1190.71,635.67c-23.15,41.86-56.94,74.09-96.15,95.2l-15.3-44.54c22.01-15.58,40.94-36.25,54.85-61.44,49.54-89.62,17.06-202.44-72.52-251.98-89.62-49.57-202.44-17.06-252.01,72.53-49.54,89.62-17.06,202.44,72.55,252.01,3.07,1.7,6.2,3.32,9.33,4.8-.03,16.23,2.68,30.69,8.13,43.37-11.98-4.3-23.77-9.61-35.27-15.97-116.06-64.17-158.15-210.31-93.94-326.4,64.17-116.06,210.31-158.12,326.38-93.94,116.09,64.17,158.15,210.31,93.97,326.38Z"/>
  <g>
    <path class="icon-2" d="M1056.61,706.37l16.44,47.89c-9.69,5.56-19.94,10.29-30.74,14.18-10.8,3.89-23.2,5.84-37.17,5.84-29.87,0-51.99-6.75-66.36-20.25-14.38-13.5-20.77-33.28-19.18-59.33.79-11.59,2.86-22.88,6.2-33.84,3.34-10.96,6.99-21.6,10.96-31.93,3.97-10.32,7.07-20.25,9.29-29.79,2.7-10.64,1.55-18.71-3.45-24.19-5-5.48-13.7-8.22-26.09-8.22-15.09,0-29.63,1.83-43.6,5.48l-5-53.37c9.37-2.7,18.74-4.49,28.12-5.36,9.37-.87,18.74-1.31,28.12-1.31,34.15,0,58.06,7.47,71.72,22.4,13.66,14.93,16.92,37.09,9.77,66.48-2.54,10.65-5.72,20.61-9.53,29.9-3.81,9.29-7.27,18.55-10.37,27.76-3.1,9.21-5.04,19.06-5.84,29.55-1.43,20.81,10.09,31.21,34.55,31.21,7.94,0,14.89-.99,20.85-2.98,5.96-1.98,13.06-5.36,21.33-10.13Z"/>
    <path class="icon-2" d="M994.24,492.7c-11.12,0-20.37-3.65-27.76-10.96-7.39-7.3-11.08-16.6-11.08-27.88s3.69-20.57,11.08-27.88c7.39-7.31,16.64-10.96,27.76-10.96s20.57,3.66,27.88,10.96c7.31,7.31,10.96,16.6,10.96,27.88s-3.66,20.57-10.96,27.88c-7.31,7.31-16.6,10.96-27.88,10.96Z"/>
  </g>
  <path class="icon-1" d="M768.91,764.82l-28.91,28.91c-9.34,9.34-24.43,9.34-33.74.03-9.31-9.31-9.34-24.43,0-33.77l28.91-28.91c6.72-6.72,16.49-8.61,24.88-5.59l30.56-30.56,14.47,14.47-30.56,30.56c.92,2.56,1.37,5.28,1.37,7.97,0,6.11-2.35,12.24-6.99,16.88Z"/>
</svg>