<svg id="it-logo-white" xmlns="http://www.w3.org/2000/svg" viewBox="210.76 364.16 1498.47 351.69">
  <defs>
    <style>
      .logo-white-1 {
        fill: #fff;
      }
    </style>
  </defs>
  <path class="logo-white-1" d="M593.47,449.11c0-9.5,7.31-16.81,16.81-16.81s16.81,7.31,16.81,16.81-7.31,16.81-16.81,16.81-16.81-7.31-16.81-16.81ZM595.66,484.92h28.99v120.33h-28.99v-120.33Z"/>
  <path class="logo-white-1" d="M645.8,441.01h28.99v60.72c8.04-12.91,20.46-19.97,35.81-19.97,27.77,0,54.07,18.02,54.07,60.89v62.6h-28.99v-62.6c0-22.9-12.18-33.86-30.45-33.86s-30.45,11.45-30.45,33.86v62.6h-28.99v-164.24Z"/>
  <path class="logo-white-1" d="M782.24,546.3c0-38.24,26.79-64.55,65.04-64.55s64.06,25.57,64.06,64.31v59.19h-26.55v-23.63c-7.31,17.78-23.63,26.8-42.63,26.8-29.23,0-59.92-20.95-59.92-62.11ZM882.35,545.08c0-21.19-14.13-36.29-35.32-36.29s-35.56,15.1-35.56,36.29,14.37,36.29,35.56,36.29,35.32-15.1,35.32-36.29Z"/>
  <path class="logo-white-1" d="M933.25,441.01h28.99v164.24h-28.99v-164.24Z"/>
  <path class="logo-white-1" d="M981.62,545.08c0-36.54,26.79-63.33,64.79-63.33s64.3,26.79,64.3,63.33v10.23h-98.65c3.9,17.54,17.29,26.8,34.34,26.8,12.91,0,22.41-3.65,28.5-11.45h30.93c-9.01,22.9-30.93,37.75-59.43,37.75-38,0-64.79-26.8-64.79-63.33ZM1080.03,532.17c-4.63-16.07-17.78-24.11-33.61-24.11s-28.99,8.28-33.61,24.11h67.23Z"/>
  <g>
    <path class="logo-white-1" d="M1146.23,559.69v-117.41h23.14v42.63h66.25v21.19h-66.25v53.59c0,19,9.99,27.28,25.09,27.28s25.33-8.04,25.33-27.28v-2.68h22.9v2.68c0,32.64-19.49,48.72-48.23,48.72s-48.23-16.08-48.23-48.72Z"/>
    <path class="logo-white-1" d="M1250.97,546.06c0-37.75,26.79-64.31,65.03-64.31s64.06,25.82,64.06,64.31v59.19h-21.19v-26.31c-8.04,19.49-25.82,29.47-46.77,29.47-31.42,0-61.14-22.65-61.14-62.36ZM1357.17,545.08c0-24.36-16.56-41.89-41.41-41.89s-41.41,17.54-41.41,41.89,16.56,41.9,41.41,41.9,41.41-17.54,41.41-41.9Z"/>
    <path class="logo-white-1" d="M1397.55,441.01h23.14v97.25l55.29-53.34h30.45l-62.84,58.7,65.04,61.63h-30.93l-57-56.02v56.02h-23.14v-164.24Z"/>
    <path class="logo-white-1" d="M1527.07,448.62c0-8.04,6.09-14.13,14.13-14.13s14.13,6.09,14.13,14.13-6.09,14.37-14.13,14.37-14.13-6.33-14.13-14.37ZM1529.75,484.92h23.14v120.33h-23.14v-120.33Z"/>
    <path class="logo-white-1" d="M1570.14,546.06c0-39.22,26.79-64.31,64.06-64.31s65.03,26.31,65.03,64.06c0,39.95-29.72,62.6-61.14,62.6-19.48,0-36.05-8.77-44.82-24.36v54.42h-23.14v-92.41ZM1675.85,545.08c0-24.36-16.56-41.89-41.41-41.89s-41.16,17.54-41.16,41.89,16.56,41.9,41.16,41.9,41.41-17.54,41.41-41.9Z"/>
  </g>
  <path class="logo-white-1" d="M533.36,600.85c-14.73,26.63-36.22,47.13-61.16,60.56l-9.73-28.33c14-9.91,26.04-23.06,34.89-39.08,31.51-57,10.85-128.77-46.13-160.28-57-31.53-128.77-10.85-160.3,46.13-31.51,57-10.85,128.77,46.15,160.3,1.95,1.08,3.94,2.11,5.93,3.06-.02,10.32,1.71,19.52,5.17,27.59-7.62-2.74-15.12-6.11-22.44-10.16-73.82-40.82-100.59-133.78-59.76-207.62,40.82-73.82,133.78-100.58,207.6-59.76,73.84,40.82,100.59,133.78,59.77,207.6Z"/>
  <g>
    <path class="logo-white-1" d="M448.06,645.83l10.46,30.46c-6.16,3.54-12.68,6.54-19.55,9.02-6.87,2.48-14.75,3.71-23.64,3.71-19,0-33.07-4.29-42.21-12.88-9.15-8.59-13.21-21.17-12.2-37.74.5-7.37,1.82-14.55,3.94-21.52,2.12-6.97,4.44-13.74,6.97-20.31,2.52-6.57,4.49-12.88,5.91-18.95,1.72-6.77.98-11.9-2.2-15.38-3.18-3.49-8.71-5.23-16.6-5.23-9.6,0-18.85,1.16-27.74,3.49l-3.18-33.95c5.96-1.72,11.92-2.85,17.88-3.41,5.96-.55,11.92-.83,17.89-.83,21.72,0,36.93,4.75,45.62,14.25,8.69,9.5,10.76,23.59,6.21,42.29-1.62,6.77-3.64,13.11-6.06,19.02-2.43,5.91-4.62,11.8-6.59,17.66-1.97,5.86-3.21,12.12-3.71,18.79-.91,13.24,6.42,19.85,21.98,19.85,5.05,0,9.47-.63,13.26-1.89,3.79-1.26,8.31-3.41,13.56-6.44Z"/>
    <path class="logo-white-1" d="M408.39,509.91c-7.07,0-12.96-2.32-17.66-6.97-4.7-4.65-7.05-10.56-7.05-17.73s2.35-13.08,7.05-17.73c4.7-4.65,10.58-6.97,17.66-6.97s13.08,2.33,17.73,6.97c4.65,4.65,6.97,10.56,6.97,17.73s-2.33,13.09-6.97,17.73c-4.65,4.65-10.56,6.97-17.73,6.97Z"/>
  </g>
  <path class="logo-white-1" d="M265.06,683l-18.39,18.39c-5.94,5.94-15.54,5.94-21.46.02-5.92-5.92-5.94-15.54,0-21.48l18.39-18.39c4.27-4.27,10.49-5.48,15.83-3.55l19.44-19.44,9.21,9.21-19.44,19.44c.58,1.63.87,3.36.87,5.07,0,3.88-1.5,7.79-4.45,10.74Z"/>
</svg>